<svg width="30" height="30" viewBox="0 0 30 30" fill="none" xmlns="http://www.w3.org/2000/svg">
<path d="M13.1244 16.8752L26.2494 3.75022M13.2839 17.2853L16.569 25.7328C16.8584 26.477 17.0031 26.8491 17.2116 26.9577C17.3924 27.0519 17.6077 27.052 17.7885 26.958C17.9972 26.8497 18.1423 26.4777 18.4326 25.7339L26.6705 4.62421C26.9326 3.95274 27.0636 3.617 26.9919 3.40247C26.9297 3.21615 26.7835 3.06994 26.5972 3.0077C26.3826 2.93603 26.0469 3.06705 25.3754 3.32909L4.26572 11.567C3.52188 11.8573 3.14996 12.0024 3.04157 12.2111C2.94761 12.3919 2.94774 12.6072 3.04191 12.788C3.15054 12.9965 3.52263 13.1412 4.26682 13.4306L12.7143 16.7157C12.8654 16.7745 12.9409 16.8039 13.0045 16.8492C13.0609 16.8894 13.1102 16.9387 13.1504 16.9951C13.1958 17.0587 13.2251 17.1342 13.2839 17.2853Z" stroke="#FF8F17" style="stroke:#FF8F17;stroke:color(display-p3 1.0000 0.5608 0.0902);stroke-opacity:1;" stroke-width="2" stroke-linecap="round" stroke-linejoin="round"/>
</svg>
