<svg width="40" height="40" viewBox="0 0 40 40" fill="none" xmlns="http://www.w3.org/2000/svg">
<path d="M18.8046 5.75561C19.1887 4.97738 19.3808 4.58826 19.6415 4.46394C19.8684 4.35577 20.132 4.35577 20.3588 4.46394C20.6196 4.58826 20.8117 4.97738 21.1958 5.75561L24.8403 13.1389C24.9537 13.3686 25.0104 13.4835 25.0932 13.5727C25.1666 13.6517 25.2546 13.7157 25.3524 13.7611C25.4628 13.8125 25.5895 13.831 25.843 13.868L33.9952 15.0596C34.8536 15.1851 35.2828 15.2478 35.4815 15.4575C35.6543 15.6399 35.7356 15.8906 35.7027 16.1397C35.6649 16.426 35.3541 16.7287 34.7326 17.334L28.8359 23.0774C28.6521 23.2565 28.5602 23.346 28.5009 23.4525C28.4484 23.5468 28.4147 23.6504 28.4017 23.7576C28.387 23.8786 28.4087 24.0051 28.4521 24.258L29.8434 32.3703C29.9902 33.2259 30.0636 33.6537 29.9257 33.9076C29.8057 34.1285 29.5924 34.2834 29.3453 34.3292C29.0612 34.3819 28.677 34.1798 27.9087 33.7758L20.6208 29.9431C20.3937 29.8237 20.2802 29.764 20.1606 29.7406C20.0547 29.7198 19.9457 29.7198 19.8398 29.7406C19.7202 29.764 19.6067 29.8237 19.3796 29.9431L12.0917 33.7758C11.3234 34.1798 10.9392 34.3819 10.6551 34.3292C10.408 34.2834 10.1947 34.1285 10.0747 33.9076C9.93683 33.6537 10.0102 33.2259 10.157 32.3703L11.5483 24.258C11.5917 24.0051 11.6134 23.8786 11.5987 23.7576C11.5857 23.6504 11.552 23.5468 11.4995 23.4525C11.4402 23.346 11.3483 23.2565 11.1645 23.0774L5.26776 17.334C4.64627 16.7287 4.33552 16.426 4.29771 16.1397C4.26481 15.8906 4.34609 15.6399 4.51891 15.4575C4.71755 15.2478 5.14678 15.1851 6.00524 15.0596L14.1573 13.868C14.4109 13.831 14.5376 13.8125 14.648 13.7611C14.7458 13.7157 14.8338 13.6517 14.9071 13.5727C14.99 13.4835 15.0467 13.3686 15.1601 13.1389L18.8046 5.75561Z" fill="#FFC973" stroke="#FFC973" style="fill:#FFC973;fill:color(display-p3 1.0000 0.7882 0.4510);fill-opacity:1;stroke:#FFC973;stroke:color(display-p3 1.0000 0.7882 0.4510);stroke-opacity:1;" stroke-width="2" stroke-linecap="round" stroke-linejoin="round"/>
</svg>
